PathFileType  4	(X/Y/Z) W:\OA_GaitRetraining\ACL OpenCap study\PS1\Edited\
DataRate	CameraRate	NumFrames	NumMarkers	Units	OrigDataRate	OrigDataStartFrame	OrigNumFrames
  200.0		  200.0		    4		     46		 mm	  200.0	      111	    147
Frame#	Time	C7			R_Shoulder			L_Shoulder			Sternum			R_humerus			R_elbow_med			R_elbow_lat			R_forearm			R_wrist_radius			R_wrist_ulna			L_humerus			L_elbow_med			L_elbow_lat			L_forearm			L_wrist_radius			L_wrist_ulna			r.ASIS			r.PSIS			L.ASIS			L.PSIS			r_thigh1			r_thigh2			r_thigh3			r_thigh4			r_thigh5			r_knee			r_shank_antsup			r_sh2			r_sh3			r_sh4			r_ankle			r_calc			r_5meta			r_toe			L_thigh1			L_thigh2			L_thigh3			L_thigh4			L_knee			L_shank_antsup			L_sh2			L_sh3			L_ankle			L_calc			L_5meta			L_toe			
		X1	Y1	Z1	X2	Y2	Z2	X3	Y3	Z3	X4	Y4	Z4	X5	Y5	Z5	X6	Y6	Z6	X7	Y7	Z7	X8	Y8	Z8	X9	Y9	Z9	X10	Y10	Z10	X11	Y11	Z11	X12	Y12	Z12	X13	Y13	Z13	X14	Y14	Z14	X15	Y15	Z15	X16	Y16	Z16	X17	Y17	Z17	X18	Y18	Z18	X19	Y19	Z19	X20	Y20	Z20	X21	Y21	Z21	X22	Y22	Z22	X23	Y23	Z23	X24	Y24	Z24	X25	Y25	Z25	X26	Y26	Z26	X27	Y27	Z27	X28	Y28	Z28	X29	Y29	Z29	X30	Y30	Z30	X31	Y31	Z31	X32	Y32	Z32	X33	Y33	Z33	X34	Y34	Z34	X35	Y35	Z35	X36	Y36	Z36	X37	Y37	Z37	X38	Y38	Z38	X39	Y39	Z39	X40	Y40	Z40	X41	Y41	Z41	X42	Y42	Z42	X43	Y43	Z43	X44	Y44	Z44	X45	Y45	Z45	X46	Y46	Z46	

111	0.55000	149.328	1208.418	-1039.900	314.654	1169.770	-1041.885	91.480	1128.584	-1166.788	224.924	1085.434	-1115.314	388.016	1167.246	-810.456	316.090	1137.905	-711.273	385.548	1162.521	-720.981	448.787	1095.405	-594.835	446.937	1091.190	-508.407	463.250	1048.379	-529.461	84.633	998.573	-1258.424	188.448	843.555	-1269.996	157.892	877.794	-1329.804	214.115	952.960	-1341.809	318.538	1041.464	-1308.707	327.059	1022.037	-1356.926	319.479	758.858	-877.667	165.577	843.184	-751.278	74.431	764.494	-979.721	102.855	848.726	-773.278	374.564	734.434	-881.904	429.941	685.658	-979.203	464.838	643.301	-964.687	398.699	642.404	-823.682	442.291	596.848	-920.659	502.467	544.882	-1073.058	495.042	444.046	-1106.668	438.074	338.849	-1120.168	458.039	452.893	-1040.834	398.778	350.673	-1045.210	347.218	203.877	-1082.269	256.452	183.751	-1073.399	417.654	145.252	-1147.260	412.726	193.544	-1207.675	6.316	662.664	-1025.778	-25.238	541.051	-1082.762	-64.086	648.286	-930.642	-88.993	523.444	-990.465	-117.471	406.565	-1076.627	-202.611	267.718	-1066.977	-219.563	320.196	-995.586	-265.810	220.815	-943.577	-329.837	128.426	-937.428	-327.505	108.432	-852.966	-352.103	28.874	-1009.870	-286.779	57.113	-1039.355
112	0.55500	158.475	1212.566	-1047.269	325.129	1175.351	-1046.808	105.601	1135.558	-1173.945	237.149	1090.835	-1121.915	394.122	1176.290	-814.917	320.161	1145.517	-716.110	389.446	1171.515	-725.108	451.123	1107.754	-596.736	447.455	1103.914	-510.380	464.981	1061.090	-530.391	102.022	1008.514	-1267.764	204.658	852.715	-1278.190	175.470	887.507	-1338.958	231.915	963.403	-1347.377	335.086	1051.080	-1310.258	344.809	1033.004	-1358.229	328.280	762.068	-884.600	172.519	846.114	-760.246	83.775	767.716	-989.246	110.228	851.958	-782.818	383.849	737.359	-887.081	440.898	690.586	-984.171	475.576	646.803	-967.372	406.454	643.422	-827.737	451.055	599.706	-926.198	514.371	549.593	-1078.097	508.437	448.980	-1113.717	452.598	343.533	-1130.120	470.097	456.217	-1048.685	411.937	353.878	-1055.574	362.330	207.081	-1096.322	271.556	185.809	-1089.759	434.720	150.333	-1160.719	430.404	199.663	-1220.544	13.591	663.182	-1033.979	-19.867	540.594	-1088.065	-57.088	651.815	-938.673	-83.906	526.160	-995.344	-113.997	407.520	-1078.726	-200.647	269.002	-1068.739	-217.280	322.062	-997.352	-264.424	223.022	-945.353	-329.066	131.092	-939.677	-327.065	112.243	-854.662	-352.090	29.673	-1010.336	-286.524	57.113	-1040.007
113	0.56000	170.180	1217.388	-1053.563	335.358	1181.309	-1050.886	119.794	1142.559	-1180.848	249.300	1095.909	-1127.715	399.771	1185.133	-818.746	324.362	1153.911	-720.993	393.354	1180.439	-729.213	453.621	1119.929	-599.010	447.815	1116.097	-512.553	467.411	1074.013	-532.022	119.431	1018.424	-1276.705	220.390	861.600	-1286.062	192.620	896.958	-1347.748	249.314	973.471	-1352.796	351.649	1060.193	-1311.501	362.129	1043.103	-1359.643	337.269	765.296	-891.541	179.762	849.164	-769.093	93.453	770.945	-998.890	118.048	855.468	-792.174	393.265	740.249	-892.180	451.616	693.355	-988.933	485.741	649.726	-971.821	413.375	645.558	-834.695	459.905	602.398	-931.810	526.604	554.080	-1082.647	521.786	453.663	-1120.589	467.176	347.994	-1139.898	482.272	459.384	-1056.134	424.787	356.554	-1065.626	377.587	210.077	-1110.211	286.869	187.814	-1106.075	451.632	155.039	-1173.918	448.298	205.346	-1232.976	21.032	663.614	-1042.575	-13.537	540.319	-1092.563	-49.790	655.717	-946.574	-78.601	529.119	-1000.187	-110.517	408.740	-1080.531	-198.211	270.967	-1070.124	-215.050	324.174	-999.083	-263.065	225.442	-947.118	-328.797	132.019	-940.897	-326.616	116.129	-856.995	-351.960	30.449	-1011.027	-286.191	57.133	-1040.757
114	0.56500	181.102	1222.179	-1060.011	345.900	1186.829	-1054.877	134.194	1149.639	-1187.414	261.654	1101.550	-1133.613	405.470	1193.335	-821.900	329.129	1159.172	-727.893	397.186	1189.182	-732.836	455.637	1131.412	-601.224	448.058	1127.693	-514.873	468.651	1085.737	-533.395	136.720	1028.452	-1285.791	235.002	869.699	-1293.224	209.271	906.236	-1356.198	266.338	982.880	-1358.186	367.847	1068.499	-1313.046	379.181	1052.668	-1361.331	348.374	768.278	-898.362	187.353	852.471	-777.901	103.424	774.214	-1008.632	126.042	858.976	-801.677	402.921	742.968	-897.299	462.330	696.611	-993.531	495.319	652.153	-977.085	421.272	647.171	-840.061	468.778	604.817	-937.679	538.406	558.078	-1087.578	535.106	457.974	-1127.256	481.809	352.115	-1149.428	494.519	462.441	-1063.089	437.917	359.224	-1075.757	392.900	212.895	-1123.980	302.239	189.653	-1122.245	468.795	159.481	-1186.830	466.317	210.765	-1245.176	28.502	664.446	-1050.570	-7.944	540.225	-1097.420	-42.184	659.956	-954.546	-73.201	532.301	-1004.880	-106.879	410.438	-1082.162	-195.712	273.290	-1071.645	-212.408	327.201	-1000.876	-261.548	228.175	-949.040	-327.832	134.697	-943.416	-326.168	120.105	-859.945	-351.787	31.436	-1011.773	-285.691	57.151	-1041.718
